<svg width="512" height="506" xmlns="http://www.w3.org/2000/svg" version="1.1" enable-background="new 0 0 1024 1024" style="background-color:white" xml:space="preserve">
 <g>
  <title>Layer 1</title>
  <path stroke="null" fill="#000000" d="m431.79482,-85.03975c20.94391,13.26743 42.48627,24.90924 61.36695,40.70923c8.26532,6.9167 17.59991,12.67218 26.0022,19.38477c11.84631,9.46406 24.62829,17.57112 36.62506,26.80578c11.88256,9.14676 21.13519,21.388 34.52264,28.63291c1.1441,0.61917 2.25677,1.55313 3.00427,2.60952c9.17151,12.96124 21.47333,23.61499 27.32001,39.08011c2.97351,7.86511 8.21869,14.84033 11.94781,22.45728c7.75721,15.8443 12.69483,32.72891 14.00745,50.20922c2.09528,27.90238 -0.43866,55.82474 -1.64227,83.72727c-0.48102,11.15146 -0.68079,22.31879 0.45874,33.45651c1.12665,11.01087 -0.46521,21.9748 -0.93732,32.92987c-0.45874,10.64441 0.08069,21.26691 -0.24426,31.90692c-0.58649,19.2002 -2.72412,38.00153 -6.28864,56.90967c-4.0664,21.57062 -7.5224,43.24713 -13.30554,64.44074c-3.94745,14.46655 -10.04931,27.95129 -21.20685,38.45459c-3.85974,3.63336 -7.97027,7.28692 -12.59015,9.77075c-12.48913,6.71429 -22.19232,16.94391 -33.38421,25.2641c-9.07697,6.74786 -16.35028,15.92682 -26.72022,20.81701c-14.58575,6.87818 -27.2829,16.62226 -40.39752,25.71015c-9.7182,6.73425 -19.24866,13.72839 -29.76251,19.17895c-6.50153,3.37036 -13.29291,5.98377 -20.4223,7.96595c-9.56726,2.65997 -17.88617,8.35479 -25.38153,14.50122c-10.98267,9.00622 -23.06763,15.13031 -36.71735,18.34594c-9.34961,2.20264 -17.68445,6.84076 -26.4505,10.43305c-10.65637,4.36694 -21.78162,6.02179 -33.16821,6.4071c-3.4939,0.11829 -6.98908,-0.07287 -10.43537,0.78949c-7.14917,1.78888 -14.2467,3.26471 -21.5816,0.3786c-2.02283,-0.79602 -4.66559,-0.49316 -6.93005,-0.12213c-16.91333,2.77143 -33.07245,-1.8468 -49.38974,-4.88727c-2.31656,-0.43164 -4.52543,-1.51953 -6.17573,-3.15985c-9.71862,-9.6596 -22.12988,-12.23449 -35.04132,-13.95093c-10.3359,-1.3739 -20.50183,-0.79583 -30.84652,0.15528c-14.87836,1.36792 -29.48157,-1.10523 -43.51389,-6.42224c-1.86407,-0.70624 -3.54611,-2.00971 -5.4498,-2.47608c-14.18979,-3.47613 -26.48925,-11.65411 -40.25747,-16.11175c-18.66648,-6.04346 -36.91315,-13.34247 -56.20368,-17.53009c-12.50214,-2.71393 -21.44505,-10.22864 -27.10791,-22.27649c-3.62892,-7.72077 -6.65224,-15.47919 -8.78244,-23.66693c-0.2091,-0.80377 -0.73016,-1.60968 -0.67752,-2.3855c0.62038,-9.14355 -4.2682,-16.14331 -8.74208,-23.41241c-8.39331,-13.63727 -17.54475,-26.7837 -27.85454,-38.96241c-6.00607,-7.09478 -12.18225,-14.01086 -17.79388,-21.45593c-6.18,-8.1991 -9.4532,-17.54096 -12.04253,-27.23724c-4.22102,-15.80646 -6.02429,-32.08814 -9.30903,-48.06269c-3.85962,-18.77038 -5.48264,-37.89398 -9.80233,-56.57879c-1.56709,-6.77863 -1.92627,-13.83753 -2.81732,-20.771c-0.57567,-4.47937 -1.38743,-8.9209 -3.20744,-13.06708c-3.06342,-6.97882 -4.38405,-14.30475 -4.7208,-21.84955c-0.14129,-3.16577 -0.8313,-5.87841 -4.07658,-7.39624c-0.9548,-0.44659 -1.87536,-1.53326 -2.2644,-2.53839c-7.15696,-18.48989 -11.93174,-37.14642 -3.47552,-56.6105c0.66121,-1.52194 1.33053,-3.10413 1.59739,-4.72397c3.2767,-19.88983 9.28926,-39.21731 12.42805,-59.10422c1.96527,-12.45163 3.46001,-25.11114 0.13059,-37.70981c-0.77043,-2.91534 -0.34684,-5.94912 0.50328,-8.89422c0.50525,-1.75037 1.20126,-3.6153 1.04493,-5.36005c-1.22262,-13.64551 6.94558,-21.83484 16.55356,-29.36279c3.65473,-2.86353 6.9574,-6.19626 9.10097,-10.43179c4.6835,-9.2544 11.03404,-16.89457 20.71535,-21.22175c3.6539,-1.63317 6.14879,-4.42132 8.59977,-7.40869c6.62787,-8.07827 13.01947,-16.39086 20.17205,-23.98178c3.78152,-4.01324 8.9183,-6.74428 13.30227,-10.27073c3.87708,-3.11875 4.44974,-9.19381 10.0617,-10.56046c6.46025,-1.57323 9.434,-8.34932 15.303,-10.62872c14.19788,-5.5141 22.63562,-17.88465 33.66141,-27.2069c7.68799,-6.50013 13.95337,-14.93888 23.50464,-19.09886c7.28272,-3.17192 14.80417,-5.96829 22.33789,-8.26002c13.42236,-4.08303 24.60614,-11.56987 35.20889,-20.19612c5.04111,-4.10137 10.02896,-7.0914 16.91132,-7.4222c9.81,-0.4715 17.7102,-5.38907 23.50128,-13.39615c2.22547,-3.07707 4.97208,-5.8522 8.53726,-6.60981c12.43857,-2.6432 24.59778,-7.57737 37.77356,-4.9882c4.97672,0.97799 9.99936,0.01103 14.90259,-0.8794c8.70239,-1.58034 17.24835,-1.10811 25.73584,1.17623c2.75848,0.74243 5.64694,1.6129 8.37857,0.93293c11.2395,-2.79789 21.74396,1.30297 32.49768,3.08151c1.47791,0.24441 2.98938,0.98559 4.40235,0.81391c15.20062,-1.84675 25.61816,8.56 37.94793,14.3009c12.98261,6.04486 24.21234,15.15495 37.62317,20.35827c18.97833,7.36342 37.50598,15.92957 57.34137,20.96343c4.21472,1.06962 8.12976,2.98179 12.08508,5.58897m-71.75097,124.2786c-5.8053,-2.51548 -11.55481,-5.17035 -17.42505,-7.52381c-37.91333,-15.20004 -77.41229,-20.29471 -117.65814,-14.96023c-49.00153,6.49502 -92.60007,25.80682 -129.81821,59.15936c-35.5701,31.8757 -60.65103,69.87305 -72.90582,116.31988c-9.73624,36.90125 -11.42997,74.01951 -3.70426,111.26786c10.61655,51.18597 35.59861,94.65112 74.65726,129.32184c59.18997,52.54058 128.40585,72.16442 206.25955,58.14056c54.50104,-9.8172 100.72931,-35.46417 137.36017,-77.64301c19.98437,-23.01123 35.91388,-48.34015 46.20917,-77.11303c12.26379,-34.27436 15.92035,-69.50641 12.62866,-105.69037c-2.25696,-24.80866 -8.43359,-48.54526 -18.63745,-71.12021c-24.33606,-53.84122 -63.5473,-93.45883 -116.96588,-120.15884z" id="svg_1"/>
  <path fill="#000000" d="m374.29568,429.59499c-27.61395,19.31433 -58.12128,30.41143 -90.95691,34.55957c-64.49039,8.14715 -121.35095,-9.67511 -169.90326,-52.78644c-37.02261,-32.87372 -60.10394,-73.92517 -67.92276,-122.97626c-10.21777,-64.10056 7.18414,-120.7438 48.56058,-170.01785c30.79763,-36.67612 70.00827,-60.33518 117.1593,-69.50589c77.75586,-15.1232 144.164,6.99924 199.24097,63.30783c29.97778,30.6481 48.05053,67.80676 55.15972,109.93622c6.18921,36.67727 2.30811,72.61465 -11.06353,107.46933c-8.68915,22.64917 -21.33942,42.87237 -36.97132,61.27081c-12.5628,14.78607 -26.5094,28.10443 -43.30279,38.74268m-297.96716,-221.64716c-7.45859,26.08087 -8.19416,52.54974 -3.85883,79.14661c6.15308,37.74847 23.71313,69.93286 50.42691,96.81518c34.09735,34.3125 76.02283,52.14545 124.20172,54.59601c31.83505,1.61926 62.86008,-4.15167 91.04093,-18.77319c58.79412,-30.50507 94.35058,-78.21595 101.44848,-145.23377c2.78589,-26.30392 0.70203,-52.26745 -7.84064,-77.40081c-13.5617,-39.89972 -38.32171,-71.30829 -73.44488,-94.46836c-27.047,-17.83465 -56.70709,-28.94446 -89.09747,-31.06039c-43.75806,-2.85852 -84.40323,7.2456 -120.47803,32.83014c-36.16092,25.6456 -61.11539,59.37176 -72.39819,103.54858z" id="svg_2"/>
  <path fill="#000000" d="m250.03185,409.9919c-29.2377,-1.49982 -55.97799,-10.04187 -79.87271,-25.74353c-39.48742,-25.94782 -63.20611,-62.39685 -69.98596,-109.65271c-9.87518,-68.83087 33.34311,-138.37894 97.23691,-163.62607c72.30777,-28.57193 151.48233,1.12982 190.91293,63.59619c18.73139,29.67438 26.435,62.05917 23.01789,97.19711c-6.1156,62.88709 -54.90265,118.48706 -119.29334,133.47065c-13.68902,3.18542 -27.4682,5.17816 -42.01572,4.75836z" id="svg_3"/>
 </g>

</svg>
